<svg width="826" height="158" viewBox="0 0 826 158" fill="none" xmlns="http://www.w3.org/2000/svg">
<path d="M23.2 6.39999L70.8 126L59.8 123.8L105 6.39999H127.6L63.8 157.6L0.2 6.39999H23.2ZM156.55 6.39999H250.55V25H175.95V69H242.55V87.6H175.95V132.4H253.35V151H156.55V6.39999ZM287.019 6.39999H306.419V132.4H379.819V151H287.019V6.39999ZM399.698 78.8C399.698 68.8 401.565 59.4 405.298 50.6C409.165 41.6667 414.498 33.8 421.298 27C428.098 20.0667 435.898 14.6667 444.698 10.8C453.632 6.8 463.232 4.8 473.498 4.8C483.632 4.8 493.098 6.8 501.898 10.8C510.832 14.6667 518.698 20.0667 525.498 27C532.432 33.8 537.832 41.6667 541.698 50.6C545.565 59.4 547.498 68.8 547.498 78.8C547.498 89.0667 545.565 98.6667 541.698 107.6C537.832 116.533 532.432 124.4 525.498 131.2C518.698 137.867 510.832 143.133 501.898 147C493.098 150.733 483.632 152.6 473.498 152.6C463.232 152.6 453.632 150.733 444.698 147C435.898 143.267 428.098 138.067 421.298 131.4C414.498 124.733 409.165 116.933 405.298 108C401.565 99.0667 399.698 89.3333 399.698 78.8ZM419.698 79C419.698 86.6 421.098 93.7333 423.898 100.4C426.698 106.933 430.565 112.733 435.498 117.8C440.432 122.867 446.165 126.867 452.698 129.8C459.232 132.6 466.298 134 473.898 134C481.365 134 488.365 132.6 494.898 129.8C501.432 126.867 507.098 122.867 511.898 117.8C516.698 112.733 520.498 106.933 523.298 100.4C526.098 93.7333 527.498 86.5333 527.498 78.8C527.498 71.2 526.098 64.0667 523.298 57.4C520.498 50.6 516.632 44.6667 511.698 39.6C506.765 34.5333 501.032 30.6 494.498 27.8C487.965 24.8667 480.965 23.4 473.498 23.4C465.898 23.4 458.832 24.8667 452.298 27.8C445.765 30.7333 440.032 34.7333 435.098 39.8C430.165 44.8667 426.365 50.8 423.698 57.6C421.032 64.2667 419.698 71.4 419.698 79ZM618.583 6.39999C625.916 6.39999 632.649 7.39999 638.783 9.4C645.049 11.2667 650.449 14.1333 654.983 18C659.649 21.7333 663.249 26.4 665.783 32C668.449 37.4667 669.783 43.8667 669.783 51.2C669.783 56.9333 668.916 62.5333 667.183 68C665.583 73.4667 662.849 78.4667 658.983 83C655.116 87.4 650.049 91 643.783 93.8C637.649 96.4667 630.049 97.8 620.983 97.8H599.583V151H580.183V6.39999H618.583ZM620.583 79.2C626.316 79.2 631.049 78.3333 634.783 76.6C638.649 74.8667 641.649 72.6667 643.783 70C645.916 67.2 647.449 64.2 648.383 61C649.316 57.8 649.783 54.8 649.783 52C649.783 49.0667 649.249 46.0667 648.183 43C647.249 39.8 645.649 36.8667 643.383 34.2C641.249 31.5333 638.383 29.3333 634.783 27.6C631.316 25.8667 627.049 25 621.983 25H599.583V79.2H620.583ZM644.383 90.2L682.183 151H659.783L621.383 90.8L644.383 90.2ZM697.619 151L760.819 0.399996H762.019L825.019 151H802.819L755.619 30.8L769.419 21.8L716.619 151H697.619ZM734.619 96.2H788.419L794.819 113H729.019L734.619 96.2Z" fill="url(#paint0_linear_27_8)"/>
<defs>
<linearGradient id="paint0_linear_27_8" x1="-8" y1="101" x2="832" y2="101" gradientUnits="userSpaceOnUse">
<stop stop-color="#49C5EF"/>
<stop offset="1" stop-color="#FFDEA5"/>
</linearGradient>
</defs>
</svg>
